<svg width="187" height="169" viewBox="0 0 187 169" fill="none" xmlns="http://www.w3.org/2000/svg">
<path fill-rule="evenodd" clip-rule="evenodd" d="M113.5 160.1H117.6H113.5V152.4C113.6 152.4 113.6 152.4 113.6 152.4C113.7 152.4 113.9 152.4 114 152.4C115.9 152.3 117.5 151.5 118.8 150.2C120.3 148.8 121 147 121 144.9C121 142.8 120.3 141.1 118.8 139.6C117.5 138.2 115.9 137.5 114 137.3C113.9 137.3 113.8 137.3 113.6 137.3H113.5V129.9H117.6H113.5V122.3C113.6 122.3 113.6 122.3 113.6 122.3C113.7 122.3 113.9 122.3 114 122.3C115.9 122.2 117.5 121.4 118.8 120.1C120.3 118.6 121 116.9 121 114.8C121 112.7 120.3 111 118.8 109.5C117.5 108.1 115.9 107.4 114 107.2C113.9 107.2 113.8 107.2 113.6 107.2H113.5V99.8V92C113.6 92 113.6 92 113.6 92C113.7 92 113.9 92 114 92C115.9 91.8 117.5 91.1 118.8 89.8C120.3 88.3 121 86.5 121 84.4C121 82.3 120.3 80.6 118.8 79.1C117.5 77.7 115.9 77 114 76.9C113.9 76.9 113.8 76.9 113.6 76.9H113.5V69.5H117.6H113.5V61.8C113.6 61.8 113.6 61.8 113.6 61.8C113.7 61.8 113.9 61.8 114 61.8C115.9 61.7 117.5 60.9 118.8 59.6C120.3 58.1 121 56.3 121 54.2C121 52.1 120.3 50.4 118.8 48.9C117.5 47.5 115.9 46.8 114 46.7C113.9 46.7 113.8 46.7 113.6 46.7H113.5V39.2H117.6H113.5V31.6C113.6 31.6 113.6 31.6 113.6 31.6C113.7 31.6 113.9 31.6 114 31.6C115.9 31.5 117.5 30.7 118.8 29.4C120.3 28 121 26.2 121 24.1C121 22 120.3 20.3 118.8 18.8C117.5 17.4 115.9 16.7 114 16.5C113.9 16.5 113.8 16.5 113.6 16.5H113.5V8.99999H117.6H113.5V1.29999H127.8C135.7 1.39999 143.4 2.99999 150.7 6.19999C157.6 9.19999 163.8 13.5 169.1 18.9C174.5 24.3 178.6 30.5 181.6 37.5C184.4 44.3 185.9 51.4 186.1 58.8V61.8C185.9 69.3 184.4 76.4 181.6 83.2C178.6 90.3 174.5 96.6 169.1 101.9C163.8 107.3 157.6 111.5 150.7 114.4C143.4 117.5 135.8 119.1 127.8 119.2H126.6L175.2 167.6H114.8C114.6 167.6 114.3 167.6 114.1 167.6C114 167.6 113.9 167.6 113.7 167.6H113.6V160.1H113.5Z" fill="#2563EB"/>
<path d="M113.5 160.1H117.6H113.5ZM113.5 160.1V152.4C113.6 152.4 113.6 152.4 113.6 152.4C113.7 152.4 113.9 152.4 114 152.4C115.9 152.3 117.5 151.5 118.8 150.2C120.3 148.8 121 147 121 144.9C121 142.8 120.3 141.1 118.8 139.6C117.5 138.2 115.9 137.5 114 137.3C113.9 137.3 113.8 137.3 113.6 137.3H113.5V129.9H117.6H113.5V122.3C113.6 122.3 113.6 122.3 113.6 122.3C113.7 122.3 113.9 122.3 114 122.3C115.9 122.2 117.5 121.4 118.8 120.1C120.3 118.6 121 116.9 121 114.8C121 112.7 120.3 111 118.8 109.5C117.5 108.1 115.9 107.4 114 107.2C113.9 107.2 113.8 107.2 113.6 107.2H113.5V99.8V92C113.6 92 113.6 92 113.6 92C113.7 92 113.9 92 114 92C115.9 91.8 117.5 91.1 118.8 89.8C120.3 88.3 121 86.5 121 84.4C121 82.3 120.3 80.6 118.8 79.1C117.5 77.7 115.9 77 114 76.9C113.9 76.9 113.8 76.9 113.6 76.9H113.5V69.5H117.6H113.5V61.8C113.6 61.8 113.6 61.8 113.6 61.8C113.7 61.8 113.9 61.8 114 61.8C115.9 61.7 117.5 60.9 118.8 59.6C120.3 58.1 121 56.3 121 54.2C121 52.1 120.3 50.4 118.8 48.9C117.5 47.5 115.9 46.8 114 46.7C113.9 46.7 113.8 46.7 113.6 46.7H113.5V39.2H117.6H113.5V31.6C113.6 31.6 113.6 31.6 113.6 31.6C113.7 31.6 113.9 31.6 114 31.6C115.9 31.5 117.5 30.7 118.8 29.4C120.3 28 121 26.2 121 24.1C121 22 120.3 20.3 118.8 18.8C117.5 17.4 115.9 16.7 114 16.5C113.9 16.5 113.8 16.5 113.6 16.5H113.5V8.99999H117.6H113.5V1.29999H127.8C135.7 1.39999 143.4 2.99999 150.7 6.19999C157.6 9.19999 163.8 13.5 169.1 18.9C174.5 24.3 178.6 30.5 181.6 37.5C184.4 44.3 185.9 51.4 186.1 58.8V61.8C185.9 69.3 184.4 76.4 181.6 83.2C178.6 90.3 174.5 96.6 169.1 101.9C163.8 107.3 157.6 111.5 150.7 114.4C143.4 117.5 135.8 119.1 127.8 119.2H126.6L175.2 167.6H114.8C114.6 167.6 114.3 167.6 114.1 167.6C114 167.6 113.9 167.6 113.7 167.6H113.6V160.1H113.5Z" stroke="#2563EB" stroke-miterlimit="10"/>
<path fill-rule="evenodd" clip-rule="evenodd" d="M113.5 9H117.6H113.5ZM113.5 39.2H117.6H113.5ZM85.1 9H113.4H85.1ZM59.1 9H63.6H59.1ZM26.2 99.6H31.5H26.2ZM43.2 69.5H74.5H43.2ZM113.5 69.5H117.6H113.5ZM113.5 129.8H117.6H113.5ZM98 69.5H113.5H98ZM54.9 99.6H113.4H54.9ZM77.6 39.2H113.5H77.6ZM113.5 160.1H117.6H113.5ZM103.6 129.8H113.4H103.6ZM15.7 129.8H59.1H15.7ZM42.9 160.1H48.5H42.9ZM68.2 160.1H113.5H68.2ZM8.5 9H28.5Z" fill="#2563EB"/>
<path d="M8.5 9H28.5M113.5 9H117.6H113.5ZM113.5 39.2H117.6H113.5ZM85.1 9H113.4H85.1ZM59.1 9H63.6H59.1ZM26.2 99.6H31.5H26.2ZM43.2 69.5H74.5H43.2ZM113.5 69.5H117.6H113.5ZM113.5 129.8H117.6H113.5ZM98 69.5H113.5H98ZM54.9 99.6H113.4H54.9ZM77.6 39.2H113.5H77.6ZM113.5 160.1H117.6H113.5ZM103.6 129.8H113.4H103.6ZM15.7 129.8H59.1H15.7ZM42.9 160.1H48.5H42.9ZM68.2 160.1H113.5H68.2Z" stroke="#2563EB" stroke-width="17" stroke-miterlimit="3" stroke-linecap="round" stroke-linejoin="round"/>
</svg>
